name C:\Users\u0101727\Documents\MyRepositories\predictivesimulations\OpenSimModel\subject1\EMG\EMG_gait_14.mot
datacolumns 25
datarows 7
range 1.60600000 1.61200000
endheader
time	HamL_r	TA_r	PerL_r	GL_r	HamM_r	Sol_r	VL_r	VM_r	PerB_l	TA_l	PerL_l	GL_l	GM_l	Sol_l	VL_l	VM_l	AddL_l	RF_l	TFL_l	GluMed_l	HamL_l	HamM_l	GluMed_r	RF_r	
          1.60600000	          0.00500374	          0.00421341	          0.03474320	          0.00392141	          0.08727536	          0.02008657	          0.02731583	          0.00474217	          0.05455243	          0.00702722	          0.01598987	          0.04186833	          0.02715448	          0.05612739	          0.00479160	          0.00531459	          0.00661008	          0.00553798	          0.00438987	          0.00452929	          0.00481825	          0.00754122	          0.02115234	          0.01088360	
          1.60700000	          0.00499149	          0.00420380	          0.03441969	          0.00390030	          0.08728372	          0.02006772	          0.02755891	          0.00473624	          0.05223152	          0.00682666	          0.01559625	          0.04097817	          0.02647538	          0.05404338	          0.00480360	          0.00530461	          0.00662555	          0.00557127	          0.00438880	          0.00456239	          0.00480853	          0.00745361	          0.02191334	          0.01117092	
          1.60800000	          0.00498038	          0.00419328	          0.03411572	          0.00387948	          0.08729552	          0.02005367	          0.02780462	          0.00472799	          0.04994950	          0.00662849	          0.01520177	          0.04010941	          0.02581079	          0.05200934	          0.00481417	          0.00529194	          0.00664249	          0.00560354	          0.00438979	          0.00459507	          0.00480105	          0.00737094	          0.02271026	          0.01147256	
          1.60900000	          0.00497053	          0.00418198	          0.03383328	          0.00385910	          0.08731337	          0.02004579	          0.02805330	          0.00471736	          0.04771091	          0.00643306	          0.01480718	          0.03926235	          0.02516037	          0.05002442	          0.00482302	          0.00527663	          0.00666096	          0.00563456	          0.00439284	          0.00462706	          0.00479576	          0.00729316	          0.02354384	          0.01178840	
          1.61000000	          0.00496197	          0.00417007	          0.03357396	          0.00383929	          0.08733882	          0.02004535	          0.02830552	          0.00470429	          0.04552013	          0.00624075	          0.01441352	          0.03843765	          0.02452378	          0.04808789	          0.00482990	          0.00525873	          0.00668098	          0.00566409	          0.00439797	          0.00465811	          0.00479261	          0.00722025	          0.02441494	          0.01211818	
          1.61100000	          0.00495473	          0.00415772	          0.03333906	          0.00382016	          0.08737224	          0.02005349	          0.02856221	          0.00468867	          0.04338099	          0.00605197	          0.01402193	          0.03763618	          0.02390091	          0.04619906	          0.00483468	          0.00523825	          0.00670255	          0.00569183	          0.00440517	          0.00468800	          0.00479154	          0.00715213	          0.02532460	          0.01246155	
          1.61200000	          0.00494876	          0.00414510	          0.03312955	          0.00380181	          0.08741308	          0.02007125	          0.02882458	          0.00467038	          0.04129678	          0.00586706	          0.01363348	          0.03685869	          0.02329183	          0.04435722	          0.00483730	          0.00521517	          0.00672567	          0.00571755	          0.00441446	          0.00471660	          0.00479254	          0.00708868	          0.02627410	          0.01281803	
